<svg xmlns="http://www.w3.org/2000/svg" width="512" height="512" viewBox="0 0 18 18">
  <defs>
    <linearGradient id="azureBlue" x1="9" y1="16.97" x2="9" y2="1.03" gradientUnits="userSpaceOnUse">
      <stop offset="0" stop-color="#0078d4" />
      <stop offset="0.16" stop-color="#1380da" />
      <stop offset="0.53" stop-color="#3c91e5" />
      <stop offset="0.82" stop-color="#559cec" />
      <stop offset="1" stop-color="#5ea0ef" />
    </linearGradient>
    <filter id="shadow" x="-20%" y="-20%" width="140%" height="140%">
      <feDropShadow dx="0.5" dy="1" stdDeviation="1" flood-color="#000" flood-opacity="0.18"/>
    </filter>
  </defs>
  <!-- Circular white background for unified look -->
  <circle cx="9" cy="9" r="8.5" fill="#fff"/>
  <!-- Azure DevOps logo, slightly reduced for spacing -->
  <g>
    <path d="M17,4v9.74l-4,3.28-6.2-2.26V17L3.29,12.41l10.23.8V4.44Zm-3.41.49L7.85,1V3.29L2.58,4.84,1,6.87v4.61l2.26,1V6.57Z" fill="url(#azureBlue)" transform="scale(0.92) translate(0.72,0.72)"/>
  </g>
  <!-- Official Azure Pipelines rocket icon (vectorized) -->
  <g transform="translate(9,10) scale(1.053) rotate(45)" filter="url(#shadow)">
    <!-- Rocket body: wider proportions -->
    <path d="M0,-6 C2.2,-3.5 2.2,2.5 0,6 C-2.2,2.5 -2.2,-3.5 0,-6 Z" fill="#36c5f0" stroke="#fff" stroke-width="1.2"/>
    <!-- Rocket window -->
    <circle cx="0" cy="-2.2" r="1.2" fill="#fff"/>
    <!-- Rocket fin left: larger -->
    <path d="M-1.7,3.2 Q-3.2,6.2 0,5.7" fill="#0078d4" stroke="#fff" stroke-width="0.7"/>
    <!-- Rocket fin right: larger -->
    <path d="M1.7,3.2 Q3.2,6.2 0,5.7" fill="#0078d4" stroke="#fff" stroke-width="0.7"/>
    <!-- Rocket flame: larger -->
    <path d="M0,6 Q1.1,8.5 0,11 Q-1.1,8.5 0,6 Z" fill="#f05133" stroke="#fff" stroke-width="0.7"/>
  </g>
</svg>
