<?xml version="1.0" encoding="UTF-8"?>
<svg version="1.1" xmlns="http://www.w3.org/2000/svg" width="187" height="141">
<path d="M0 0 C1.77206192 0.00015919 3.54412846 0.00585754 5.31616211 0.01586914 C6.24698105 0.01728409 7.17779999 0.01869904 8.13682556 0.02015686 C11.12241777 0.02577367 14.10793615 0.03832899 17.09350586 0.05102539 C19.11238499 0.05603823 21.13126529 0.06060151 23.15014648 0.06469727 C28.11046158 0.07574856 33.07072118 0.09302444 38.03100586 0.11352539 C36.58651619 9.36969446 34.75497337 18.52688301 32.80834961 27.68774414 C32.49960312 29.1479092 32.19097597 30.60809949 31.88246155 32.0683136 C31.24126787 35.09995403 30.59811196 38.13116991 29.95361328 41.16210938 C29.12653415 45.05286295 28.3053308 48.9448314 27.4856329 52.83714581 C26.85258972 55.8392939 26.21608761 58.84070053 25.57855415 61.84189796 C25.27396197 63.27822928 24.97055556 64.71481257 24.66834831 66.15164757 C24.24847026 68.1458026 23.82334686 70.13885106 23.39794922 72.13183594 C23.15749374 73.26590378 22.91703827 74.39997162 22.66929626 75.56840515 C22.03100586 78.11352539 22.03100586 78.11352539 21.03100586 79.11352539 C19.25940268 79.20986998 17.48392178 79.2354002 15.70970154 79.23377991 C14.55558777 79.23515457 13.401474 79.23652924 12.21238708 79.23794556 C10.93493118 79.23435028 9.65747528 79.230755 8.34130859 79.22705078 C6.99142458 79.22676891 5.64154042 79.22692664 4.29165649 79.22749329 C0.61619978 79.22778126 -3.05922457 79.22188455 -6.73467374 79.21491933 C-10.57172563 79.20868578 -14.40877818 79.20808199 -18.24583435 79.20689392 C-25.51670632 79.20378061 -32.78756333 79.19556722 -40.0584287 79.18554443 C-48.33398766 79.17438329 -56.60954732 79.16887284 -64.88511193 79.163849 C-81.91308133 79.15338461 -98.94103616 79.13578517 -115.96899414 79.11352539 C-114.72001216 66.62370555 -111.69192989 54.36673625 -108.96899414 42.11352539 C-77.28899414 42.11352539 -45.60899414 42.11352539 -12.96899414 42.11352539 C-12.30899414 37.82352539 -11.64899414 33.53352539 -10.96899414 29.11352539 C-10.50424522 26.65531482 -10.01864169 24.20077858 -9.49633789 21.75415039 C-9.2365918 20.53727539 -8.9768457 19.32040039 -8.70922852 18.06665039 C-8.44432617 16.84461914 -8.17942383 15.62258789 -7.90649414 14.36352539 C-7.63772461 13.09508789 -7.36895508 11.82665039 -7.09204102 10.51977539 C-6.70435547 8.71766602 -6.70435547 8.71766602 -6.30883789 6.87915039 C-5.95873657 5.25154785 -5.95873657 5.25154785 -5.6015625 3.59106445 C-4.57616025 -0.42506136 -4.49506475 0.12857262 0 0 Z " fill="#004D59" transform="translate(115.968994140625,56.886474609375)"/>
<path d="M0 0 C45.54 0 91.08 0 138 0 C136.14113936 12.08259416 133.5968987 24.05426597 131 36 C99.32 36 67.64 36 35 36 C34.34 40.29 33.68 44.58 33 49 C32.53525108 51.45821057 32.04964755 53.91274681 31.52734375 56.359375 C31.26759766 57.57625 31.00785156 58.793125 30.74023438 60.046875 C30.47533203 61.26890625 30.21042969 62.4909375 29.9375 63.75 C29.66873047 65.0184375 29.39996094 66.286875 29.12304688 67.59375 C28.86458984 68.79515625 28.60613281 69.9965625 28.33984375 71.234375 C28.10644287 72.31944336 27.87304199 73.40451172 27.63256836 74.52246094 C27 77 27 77 26 78 C22.89748799 78.08874135 19.8173188 78.11518455 16.71484375 78.09765625 C15.78402481 78.0962413 14.85320587 78.09482635 13.8941803 78.09336853 C10.90858809 78.08775172 7.92306971 78.0751964 4.9375 78.0625 C2.91862087 78.05748716 0.89974057 78.05292388 -1.11914062 78.04882812 C-6.07945572 78.03777683 -11.03971532 78.02050095 -16 78 C-11.63662527 51.81975162 -5.50744645 25.96367613 0 0 Z " fill="#004D59" transform="translate(46,0)"/>
</svg>
