<svg xmlns="http://www.w3.org/2000/svg" width="512" height="512" viewBox="0 0 18 18">
  <defs>
    <linearGradient id="azureBlue" x1="9" y1="16.97" x2="9" y2="1.03" gradientUnits="userSpaceOnUse">
      <stop offset="0" stop-color="#0078d4" />
      <stop offset="0.16" stop-color="#1380da" />
      <stop offset="0.53" stop-color="#3c91e5" />
      <stop offset="0.82" stop-color="#559cec" />
      <stop offset="1" stop-color="#5ea0ef" />
    </linearGradient>
  </defs>
  <!-- Circular white background for unified look -->
  <circle cx="9" cy="9" r="8.5" fill="#fff"/>
  <!-- Azure DevOps logo, slightly reduced for spacing -->
  <g>
    <path d="M17,4v9.74l-4,3.28-6.2-2.26V17L3.29,12.41l10.23.8V4.44Zm-3.41.49L7.85,1V3.29L2.58,4.84,1,6.87v4.61l2.26,1V6.57Z" fill="url(#azureBlue)" transform="scale(0.92) translate(0.72,0.72)"/>
  </g>
  <!-- Official Git logo with white outline, drop shadow, and balanced size -->
  <defs>
    <filter id="shadow" x="-20%" y="-20%" width="140%" height="140%">
      <feDropShadow dx="0.5" dy="1" stdDeviation="1" flood-color="#000" flood-opacity="0.18"/>
    </filter>
  </defs>
  <g transform="translate(9,9) scale(0.095) translate(-48.5,-48.5)">
    <!-- White outline -->
    <path d="M92.71 44.408L52.592 4.29a5.09 5.09 0 0 0-7.194 0l-7.13 7.13 9.37 9.37a7.065 7.065 0 0 1 8.98 8.98l9.13 9.13a7.065 7.065 0 1 1-4.24 4.24l-8.68-8.68v22.56a7.07 7.07 0 1 1-5 0V34.31a7.065 7.065 0 0 1-3.98-9.23l-9.25-9.25-28.7 28.7a5.09 5.09 0 0 0 0 7.194l40.12 40.12a5.09 5.09 0 0 0 7.194 0l40.12-40.12a5.09 5.09 0 0 0 0-7.194z" fill="#fff" stroke="#fff" stroke-width="7" filter="url(#shadow)"/>
    <!-- Git logo fill -->
    <path d="M92.71 44.408L52.592 4.29a5.09 5.09 0 0 0-7.194 0l-7.13 7.13 9.37 9.37a7.065 7.065 0 0 1 8.98 8.98l9.13 9.13a7.065 7.065 0 1 1-4.24 4.24l-8.68-8.68v22.56a7.07 7.07 0 1 1-5 0V34.31a7.065 7.065 0 0 1-3.98-9.23l-9.25-9.25-28.7 28.7a5.09 5.09 0 0 0 0 7.194l40.12 40.12a5.09 5.09 0 0 0 7.194 0l40.12-40.12a5.09 5.09 0 0 0 0-7.194z" fill="#f05133" filter="url(#shadow)"/>
  </g>
</svg>
