<svg xmlns="http://www.w3.org/2000/svg" width="512" height="512" viewBox="0 0 18 18">
  <defs>
    <linearGradient id="azureBlue" x1="9" y1="16.97" x2="9" y2="1.03" gradientUnits="userSpaceOnUse">
      <stop offset="0" stop-color="#0078d4" />
      <stop offset="0.16" stop-color="#1380da" />
      <stop offset="0.53" stop-color="#3c91e5" />
      <stop offset="0.82" stop-color="#559cec" />
      <stop offset="1" stop-color="#5ea0ef" />
    </linearGradient>
    <filter id="shadow" x="-20%" y="-20%" width="140%" height="140%">
      <feDropShadow dx="0.5" dy="1" stdDeviation="1" flood-color="#000" flood-opacity="0.18"/>
    </filter>
  </defs>
  <!-- Circular white background for unified look -->
  <circle cx="9" cy="9" r="8.5" fill="#fff"/>
  <!-- Azure DevOps logo, slightly reduced for spacing -->
  <g>
    <path d="M17,4v9.74l-4,3.28-6.2-2.26V17L3.29,12.41l10.23.8V4.44Zm-3.41.49L7.85,1V3.29L2.58,4.84,1,6.87v4.61l2.26,1V6.57Z" fill="url(#azureBlue)" transform="scale(0.92) translate(0.72,0.72)"/>
  </g>
  <!-- Official Azure Virtual Machine icon at the center (now 51% of original size) -->
  <g transform="translate(9,9.9) scale(0.343) translate(-9,-9)">
    <defs>
      <linearGradient id="f34d9569-2bd0-4002-8f16-3d01d8106cb5" x1="8.88" y1="12.21" x2="8.88" y2="0.21" gradientUnits="userSpaceOnUse">
        <stop offset="0" stop-color="#0078d4"/>
        <stop offset="0.82" stop-color="#5ea0ef"/>
      </linearGradient>
      <linearGradient id="bdb45a0b-eb58-4970-a60a-fb2ce314f866" x1="8.88" y1="16.84" x2="8.88" y2="12.21" gradientUnits="userSpaceOnUse">
        <stop offset="0.15" stop-color="#ccc"/>
        <stop offset="1" stop-color="#707070"/>
      </linearGradient>
    </defs>
    <rect x="-0.12" y="0.21" width="18" height="12" rx="0.6" fill="url(#f34d9569-2bd0-4002-8f16-3d01d8106cb5)"/>
    <polygon points="11.88 4.46 11.88 7.95 8.88 9.71 8.88 6.21 11.88 4.46" fill="#50e6ff"/>
    <polygon points="11.88 4.46 8.88 6.22 5.88 4.46 8.88 2.71 11.88 4.46" fill="#c3f1ff"/>
    <polygon points="8.88 6.22 8.88 9.71 5.88 7.95 5.88 4.46 8.88 6.22" fill="#9cebff"/>
    <polygon points="5.88 7.95 8.88 6.21 8.88 9.71 5.88 7.95" fill="#c3f1ff"/>
    <polygon points="11.88 7.95 8.88 6.21 8.88 9.71 11.88 7.95" fill="#9cebff"/>
    <path d="M12.49,15.84c-1.78-.28-1.85-1.56-1.85-3.63H7.11c0,2.07-.06,3.35-1.84,3.63a1,1,0,0,0-.89,1h9A1,1,0,0,0,12.49,15.84Z" fill="url(#bdb45a0b-eb58-4970-a60a-fb2ce314f866)"/>
  </g>
</svg>
